<svg width="73" height="35" viewBox="0 0 73 35" xmlns="http://www.w3.org/2000/svg">
    <g fill="none" fill-rule="evenodd">
        <path d="M46.265 35c.98 0 1.974-.25 2.884-.775l20.298-11.719-14.15-5.18-11.928 6.888A5.78 5.78 0 0 0 46.265 35" fill="#FBBC04"/>
        <path d="M66.552 23.281a5.775 5.775 0 0 0 5.01-2.892 5.779 5.779 0 0 0-2.114-7.894L49.15.775a5.78 5.78 0 0 0-5.78 10.011l20.298 11.72c.91.525 1.904.775 2.884.775" fill="#0F9D58"/>
        <path d="M17.222 17.568l11.747-6.782a5.78 5.78 0 0 0-5.78-10.01L2.891 12.495l14.331 5.072z" fill="#EA4335"/>
        <path d="M26.073 35a5.78 5.78 0 0 0 2.896-10.786L8.67 12.495A5.778 5.778 0 0 0 .777 14.61a5.78 5.78 0 0 0 2.114 7.896l20.3 11.719c.91.525 1.903.775 2.883.775" fill="#4285F4"/>
    </g>
</svg>
