<svg version="1.0" xmlns="http://www.w3.org/2000/svg" viewBox="0 0 677 677"><path d="M326 1.4c-3.1.8-19.1 7.7-35.5 15.4-16.5 7.7-31.8 14.5-34 15.1-2.2.6-19.2 2.5-37.7 4.1-36.6 3.2-41.5 4.2-51.4 10.5-8.5 5.4-11.8 9.4-31.1 37-9.9 14.3-19.9 27.9-22 30.1-2.2 2.2-15.8 12.3-30.4 22.5-14.5 10.1-28.5 20.6-31 23.2-5 5.1-10.9 15.5-12.8 22.2-.6 2.2-2.5 19.2-4.1 37.7-2.2 24.7-3.5 35.3-4.9 39.5-1.1 3.2-7.9 18.4-15.1 33.8C1.4 323.6-.5 329.4.3 341.5c.6 10.4 1.6 13 16.4 44.5 6.8 14.6 13.3 29.1 14.4 32.2 1.4 4.2 2.7 15.1 4.9 39.5 3.2 35.9 3.6 38.6 8.1 47.4 5 10 11.6 16 39.3 35.2 14.4 10 28.1 20.2 30.6 22.7s12.7 16.2 22.7 30.5c18.5 26.6 23.1 32 31.8 37.4 8.8 5.6 15.4 6.9 51.6 10.1 20.4 1.8 35.4 3.5 38.2 4.5 2.6.9 17.2 7.4 32.4 14.6 47.4 22.2 47.8 22.2 94.6.3 16-7.5 31.2-14.3 33.7-15.1 2.5-.8 19.6-2.7 38-4.4 37.1-3.2 42.8-4.4 52.5-10.7 8.4-5.5 11.7-9.3 32.4-39 10.1-14.5 20.3-28 22.6-30 2.3-2 15.2-11.3 28.6-20.7 27.4-19 31.7-22.6 36.9-30.7 6.5-10 7.7-15.8 11-52.8 1.6-18.4 3.5-35.5 4.3-38 .8-2.5 7.6-17.7 15.1-33.8 22-47 22-46.4-.8-95.6-9.7-21-14.8-33.1-15.5-37.1-.6-3.3-2.2-19.6-3.6-36.2-2.8-33.5-4-39.2-10.3-48.9-5.6-8.5-10.8-12.9-37.8-31.7-13.2-9.2-25.8-18.2-28-20.1-2.2-1.9-12.6-15.7-23.1-30.8C521.8 56.9 515 49.1 507 45c-10.1-5.2-14.6-6-49.1-9-23.3-2.1-35.4-3.5-39.5-4.9-3.2-1-17.6-7.4-31.9-14.1C372.2 10.3 358 3.9 355 2.8c-7.2-2.6-21.6-3.3-29-1.4z"/><path d="M517 52.4c0 .2.8 1 1.8 1.7 1.5 1.3 1.6 1.2.3-.4s-2.1-2.1-2.1-1.3zm105 105c0 .2.8 1 1.8 1.7 1.5 1.3 1.6 1.2.3-.4s-2.1-2.1-2.1-1.3zm-570 360c0 .2.8 1 1.8 1.7 1.5 1.3 1.6 1.2.3-.4s-2.1-2.1-2.1-1.3z" fill-opacity=".19"/></svg>